# xmcd
#
# Track frame offsets:
#	150
#	15135
#	38328
#	61440
#	97782
#	143844
#	173679
#	204000
#	238992
#	258945
#
# Disc length: 3825 seconds
#
# Revision: 2
# Processed by: cddbd v1.5.1PL2 Copyright (c) Steve Scherf et al.
# Submitted via: EasyCDDAExtractor 8.0.2.1
#
DISCID=6d0eef0a
DTITLE=Black Sabbath - Tweeter Center Tinley Park 30-07-05
DYEAR=2005
DGENRE=Hard Rock
TTITLE0=Sabbath Medley
TTITLE1=NIB
TTITLE2=After Forever
TTITLE3=War Pigs
TTITLE4=Dirty Women
TTITLE5=Fairies Wear Boots
TTITLE6=Electric Funeral
TTITLE7=Iron Man
TTITLE8=Paranoid
TTITLE9=Changes
EXTD=
EXTT0=
EXTT1=
EXTT2=
EXTT3=
EXTT4=
EXTT5=
EXTT6=
EXTT7=
EXTT8=
EXTT9=
PLAYORDER=
